<?xml version="1.0" encoding="UTF-8"?> <svg xmlns="http://www.w3.org/2000/svg" width="281" height="109" id="Layer_1" data-name="Layer 1" viewBox="0 0 256 90.79"><defs><style>.cls-1{fill:#3bbfad;}</style></defs><path class="cls-1" d="M102.61,176.65H115v51H103.34L80.21,197.16v30.47H67.78v-51H79.49l23.19,30.69Z" transform="translate(-67.78 -175.85)"></path><path class="cls-1" d="M163.79,227.63l-3.49-9h-22l-3.56,9H121l21.89-51h13.67l21.38,51Zm-21.53-19.2h14.11l-7-18.18Z" transform="translate(-67.78 -175.85)"></path><path class="cls-1" d="M220.06,179.27A26.34,26.34,0,0,1,230,215.56a26,26,0,0,1-9.89,9.53,30.22,30.22,0,0,1-28.14,0A25.44,25.44,0,0,1,182,215.6a26,26,0,0,1-3.6-13.57,25.35,25.35,0,0,1,13.49-22.76,30.65,30.65,0,0,1,28.14,0Zm-20.95,9.82a14.21,14.21,0,0,0-5.12,5.42,16.25,16.25,0,0,0,0,15.27,14.87,14.87,0,0,0,5.13,5.45,12.85,12.85,0,0,0,7,2,12.71,12.71,0,0,0,7-2,14,14,0,0,0,5-5.45,16.23,16.23,0,0,0,1.82-7.67,16.06,16.06,0,0,0-1.82-7.6,13.8,13.8,0,0,0-5-5.42,12.92,12.92,0,0,0-7-2A13.29,13.29,0,0,0,199.11,189.09Z" transform="translate(-67.78 -175.85)"></path><path class="cls-1" d="M240.89,176.65h14.48l14.76,29.82,14.69-29.82h14.47v51H287.51l-.07-32.29-13,27.2h-8.58l-13.09-27.2v32.29H240.89Z" transform="translate(-67.78 -175.85)"></path><path class="cls-1" d="M310.47,176.65h13.31v51H310.47Z" transform="translate(-67.78 -175.85)"></path><path class="cls-1" d="M86.22,242.31a1.65,1.65,0,0,0-.52,1.32v1.07h3.67v3.61H85.7v12.15H80.28V248.31H78.05V244.7h2.23v-1.53A5.19,5.19,0,0,1,82,239a6.7,6.7,0,0,1,4.52-1.52,10.17,10.17,0,0,1,3.55.65l-.71,4.13a6,6,0,0,0-1.83-.43A2,2,0,0,0,86.22,242.31Z" transform="translate(-67.78 -175.85)"></path><path class="cls-1" d="M103.8,244.77a7.82,7.82,0,0,1,3.19,3,9.29,9.29,0,0,1,0,8.88,7.82,7.82,0,0,1-3.19,3,11.25,11.25,0,0,1-9.49,0,7.68,7.68,0,0,1-3.16-3,9.36,9.36,0,0,1,0-8.88,7.68,7.68,0,0,1,3.16-3,11.25,11.25,0,0,1,9.49,0Zm-7.31,4.49a4.33,4.33,0,0,0-1,3,4.41,4.41,0,0,0,1,3,3.24,3.24,0,0,0,2.57,1.13,3.28,3.28,0,0,0,2.6-1.13,4.46,4.46,0,0,0,1-3,4.33,4.33,0,0,0-1-3,3.28,3.28,0,0,0-2.59-1.13A3.21,3.21,0,0,0,96.49,249.26Z" transform="translate(-67.78 -175.85)"></path><path class="cls-1" d="M118.28,244.45a6.23,6.23,0,0,1,3.11-.76v5c-.19,0-.46,0-.83,0a5,5,0,0,0-3.12.9,3.43,3.43,0,0,0-1.38,2.46v8.45h-5.45V243.9h5.45v2.76A6,6,0,0,1,118.28,244.45Z" transform="translate(-67.78 -175.85)"></path><path class="cls-1" d="M143.61,244.19a6,6,0,0,0-2.85-.78,5.57,5.57,0,0,0-2.95.81,5.74,5.74,0,0,0-2.1,2.24,7,7,0,0,0,0,6.33,5.74,5.74,0,0,0,2.1,2.24,5.57,5.57,0,0,0,2.95.81,6.64,6.64,0,0,0,2.76-.67,8.73,8.73,0,0,0,2.57-1.84l3.27,3.52a13,13,0,0,1-4.14,2.92,11.51,11.51,0,0,1-10.52-.38,10.8,10.8,0,0,1-4-4,11.14,11.14,0,0,1-1.47-5.69,10.82,10.82,0,0,1,1.5-5.64,10.69,10.69,0,0,1,4.12-3.94,12.21,12.21,0,0,1,10.57-.45,11.72,11.72,0,0,1,4,2.71l-3.24,3.92A8,8,0,0,0,143.61,244.19Z" transform="translate(-67.78 -175.85)"></path><path class="cls-1" d="M155.87,237.09a3.1,3.1,0,0,1,0,4.18,3,3,0,0,1-4.13,0,3.1,3.1,0,0,1,0-4.18,3,3,0,0,1,4.13,0Zm-4.73,6.81h5.42v16.56h-5.42Z" transform="translate(-67.78 -175.85)"></path><path class="cls-1" d="M171.06,259.6a8.43,8.43,0,0,1-2.12.82,10.32,10.32,0,0,1-2.41.29,5.59,5.59,0,0,1-4-1.41,5.06,5.06,0,0,1-1.51-3.89v-7.1h-2.3V244.7h2.3v-4.59h5.41v4.59h4.29v3.61h-4.29v6.24c0,1.17.48,1.75,1.44,1.75a5.41,5.41,0,0,0,2.11-.55Z" transform="translate(-67.78 -175.85)"></path><path class="cls-1" d="M180.38,265.53a6.72,6.72,0,0,1-3.95,1.11,7.74,7.74,0,0,1-2.57-.41,7.94,7.94,0,0,1-2.32-1.3l2.26-3.77a4.31,4.31,0,0,0,1.1.71,3,3,0,0,0,1.1.21,2.09,2.09,0,0,0,2-1.25l.4-.77-6.85-16.16h5.6l4,10.78,3.52-10.78H190l-7.1,18.18A7.58,7.58,0,0,1,180.38,265.53Z" transform="translate(-67.78 -175.85)"></path><path class="cls-1" d="M211.7,244.19a6,6,0,0,0-2.85-.78,5.54,5.54,0,0,0-2.95.81,5.74,5.74,0,0,0-2.1,2.24,6.89,6.89,0,0,0,0,6.33,5.74,5.74,0,0,0,2.1,2.24,5.54,5.54,0,0,0,2.95.81,6.6,6.6,0,0,0,2.75-.67,8.6,8.6,0,0,0,2.57-1.84l3.28,3.52a13.09,13.09,0,0,1-4.15,2.92,11.49,11.49,0,0,1-10.51-.38,10.73,10.73,0,0,1-4-4,11.14,11.14,0,0,1-1.47-5.69,10.82,10.82,0,0,1,1.5-5.64,10.69,10.69,0,0,1,4.12-3.94,12.24,12.24,0,0,1,14.52,2.26l-3.25,3.92A8,8,0,0,0,211.7,244.19Z" transform="translate(-67.78 -175.85)"></path><path class="cls-1" d="M231.87,244.77a7.82,7.82,0,0,1,3.19,3,9.29,9.29,0,0,1,0,8.88,7.82,7.82,0,0,1-3.19,3,11.22,11.22,0,0,1-9.48,0,7.65,7.65,0,0,1-3.17-3,9.36,9.36,0,0,1,0-8.88,7.65,7.65,0,0,1,3.17-3,11.22,11.22,0,0,1,9.48,0Zm-7.31,4.49a4.38,4.38,0,0,0-1,3,4.46,4.46,0,0,0,1,3,3.24,3.24,0,0,0,2.57,1.13,3.28,3.28,0,0,0,2.6-1.13,4.41,4.41,0,0,0,1-3,4.33,4.33,0,0,0-1-3,3.28,3.28,0,0,0-2.59-1.13A3.21,3.21,0,0,0,224.56,249.26Z" transform="translate(-67.78 -175.85)"></path><path class="cls-1" d="M255,243.9v16.56h-5.45v-2.69a5.84,5.84,0,0,1-5.3,2.94,5.6,5.6,0,0,1-4.3-1.73,6.52,6.52,0,0,1-1.6-4.61V243.9h5.45v8.91a3.15,3.15,0,0,0,.71,2.2,2.5,2.5,0,0,0,1.95.8,2.81,2.81,0,0,0,2.26-1.06,4.13,4.13,0,0,0,.83-2.68V243.9Z" transform="translate(-67.78 -175.85)"></path><path class="cls-1" d="M273.89,245.4a6.37,6.37,0,0,1,1.64,4.62v10.44h-5.42v-8.88a3.13,3.13,0,0,0-.76-2.22,2.68,2.68,0,0,0-2.05-.81,3.14,3.14,0,0,0-2.22.89,3.67,3.67,0,0,0-1,2.27v8.75h-5.44V243.9h5.44v2.7a6,6,0,0,1,2.28-2.18,6.77,6.77,0,0,1,3.2-.73A5.75,5.75,0,0,1,273.89,245.4Z" transform="translate(-67.78 -175.85)"></path><path class="cls-1" d="M286.57,248.22a3,3,0,0,0-2.39,1.11,4.44,4.44,0,0,0-.92,2.9,4.38,4.38,0,0,0,.92,2.9,3,3,0,0,0,2.39,1.11,3.39,3.39,0,0,0,3.24-1.87l4,2.3a6.77,6.77,0,0,1-2.94,2.93,9.6,9.6,0,0,1-4.59,1,9.22,9.22,0,0,1-4.47-1,7.25,7.25,0,0,1-3-2.93,8.88,8.88,0,0,1-1.06-4.41,9.2,9.2,0,0,1,1.07-4.49,7.46,7.46,0,0,1,3-3,10.06,10.06,0,0,1,8.89,0,7.48,7.48,0,0,1,3,2.9l-3.95,2.29A3.71,3.71,0,0,0,286.57,248.22Z" transform="translate(-67.78 -175.85)"></path><path class="cls-1" d="M300.58,237.09a3.1,3.1,0,0,1,0,4.18,3,3,0,0,1-4.13,0,3.1,3.1,0,0,1,0-4.18,3,3,0,0,1,4.13,0Zm-4.73,6.81h5.42v16.56h-5.42Z" transform="translate(-67.78 -175.85)"></path><path class="cls-1" d="M305,237.75h5.45v22.71H305Z" transform="translate(-67.78 -175.85)"></path></svg> 